<svg xmlns="http://www.w3.org/2000/svg" viewBox="0 0 1494.51 427.37"><defs><style>.cls-1{fill:blue;}</style></defs><g id="Layer_2" data-name="Layer 2"><path class="cls-1" d="M59.56,256.33H99l59,166.85H120.23l-11-34.3H47.78l-11.31,34.3H0Zm-2.3,103.8H100L78.92,294.48Z"/><path class="cls-1" d="M251.86,344.06a28.75,28.75,0,0,0-4.65-12.45q-5.44-7.47-16.91-7.47-16.34,0-22.35,16.18-3.18,8.58-3.18,22.81,0,13.55,3.18,21.79,5.78,15.4,21.78,15.4,11.36,0,16.12-6.12t5.78-15.84h32.94q-1.12,14.72-10.65,27.84-15.18,21.18-45,21.17t-43.85-17.66Q171,392.06,171,363.92q0-31.74,15.52-49.41t42.83-17.65q23.24,0,38,10.41t17.5,36.79Z"/><path class="cls-1" d="M555.66,408.09Q540,427.37,508.23,427.37T460.8,408.09q-15.62-19.29-15.62-46.43,0-26.68,15.62-46.26t47.43-19.56q31.82,0,47.43,19.56t15.63,46.26Q571.29,388.81,555.66,408.09Zm-25.81-17.83q7.59-10.06,7.59-28.6t-7.59-28.54q-7.58-10-21.73-10t-21.79,10q-7.63,10-7.64,28.54t7.64,28.6q7.64,10.07,21.79,10.06T529.85,390.26Z"/><path class="cls-1" d="M695.26,306.87q12.12,10,12.12,33.23v83.08h-33V348.13q0-9.72-2.59-14.94-4.72-9.51-18-9.51-16.31,0-22.37,13.93-3.15,7.35-3.14,18.79v66.78H596l-.3-113.26,31.54-9.9v18q6.19-9.51,11.72-13.69,9.91-7.47,25.14-7.47Q683.15,296.86,695.26,306.87Z"/><path class="cls-1" d="M27.94,20.6Q48.1,0,79.23,0q41.65,0,60.92,27.62,10.64,15.51,11.42,31.13H116.71q-3.33-12-8.54-18.11Q98.85,29.77,80.56,29.77q-18.63,0-29.39,15.34T40.41,88.52q0,28.08,11.35,42.05t28.85,14q17.94,0,27.35-12,5.21-6.45,8.64-19.35h34.63q-4.47,27.28-22.9,44.37t-47.2,17.09q-35.61,0-56-23.09T4.76,88Q4.76,44.27,27.94,20.6Z"/><path class="cls-1" d="M279.71,154.93q-15.61,19.27-47.43,19.28t-47.43-19.28q-15.61-19.29-15.62-46.43,0-26.68,15.62-46.26t47.43-19.56q31.82,0,47.43,19.56t15.62,46.26Q295.33,135.65,279.71,154.93ZM253.9,137.1q7.59-10.07,7.59-28.6T253.9,80q-7.58-10-21.73-10T210.38,80q-7.63,10-7.64,28.54t7.64,28.6q7.63,10.05,21.79,10.06T253.9,137.1Z"/><path class="cls-1" d="M351.37,170H319.1V3.17h32.27Z"/><path class="cls-1" d="M415.78,170H383.51V3.17h32.27Z"/><path class="cls-1" d="M650,90.9a28.7,28.7,0,0,0-4.65-12.45Q639.89,71,628.42,71q-16.33,0-22.35,16.19-3.18,8.58-3.18,22.81,0,13.55,3.18,21.79,5.79,15.41,21.78,15.4,11.35,0,16.12-6.12t5.78-15.84h32.94Q681.57,139.92,672,153q-15.18,21.18-45,21.17t-43.85-17.66q-14.06-17.66-14.05-45.79,0-31.74,15.52-49.41t42.83-17.66q23.24,0,38,10.42T683,90.9Z"/><path class="cls-1" d="M922.73,46.64h34.64L912.81,170h-34L834.55,46.64h36.22l25.7,91Z"/><path class="cls-1" d="M818.85,285.43H786.14l.6-18.44,32.11-11.33Zm-32.71,14.72h32.71V423.54H786.14Z"/><path class="cls-1" d="M934.56,307.23q12.12,10,12.12,33.22v83.09h-33V348.49q0-9.74-2.59-14.95-4.71-9.51-18-9.5-16.3,0-22.37,13.92-3.13,7.37-3.14,18.79v66.79H835.3l.81-113.62,30.43-9.54v18q6.19-9.51,11.72-13.7,9.91-7.47,25.14-7.47Q922.45,297.21,934.56,307.23Z"/><path class="cls-1" d="M1126.85,256.06v29.55h-49.92V422.92h-35.09V285.61H991.69V256.06Z"/><path class="cls-1" d="M1330.26,343.79a28.62,28.62,0,0,0-4.65-12.45q-5.44-7.47-16.91-7.47-16.34,0-22.35,16.19-3.18,8.58-3.18,22.8,0,13.56,3.18,21.8,5.79,15.39,21.79,15.39,11.34,0,16.11-6.11t5.79-15.85H1363q-1.14,14.71-10.66,27.85-15.18,21.17-45,21.17t-43.85-17.66q-14.06-17.67-14-45.8,0-31.74,15.52-49.4t42.83-17.66q23.24,0,38,10.41t17.5,36.79Z"/><path class="cls-1" d="M1471.92,300.21a36.28,36.28,0,0,1,15.27,12.13,32.44,32.44,0,0,1,6.2,14.22q1.13,7.31,1.12,23.85v72.51h-32.94V347.78q0-10-3.37-16.09-4.38-8.61-16.63-8.61-12.69,0-19.27,8.55t-6.57,24.42v66.87h-32.26V256.63h32.26v58.86q7-10.75,16.17-15a45.57,45.57,0,0,1,19.33-4.24A52.31,52.31,0,0,1,1471.92,300.21Z"/><polygon class="cls-1" points="387.48 266.99 387.42 285.08 420.13 285.08 420.13 255.31 387.48 266.99"/><path class="cls-1" d="M420,298.43l-.82-.74H346V265.15H314.12v32.54H314l-23.61,8.58v17.17h23.78v75.05q0,11.55,5.43,17.1,8.37,8.71,31.24,7.92l15.28-.56V398.83c-1.06.08-2.13.14-3.22.17s-2.14.06-3.12.06q-9.84,0-11.77-1.87T346,387.74v-64.3h41.2v98.37h.18v1.37h32.72V299.8H420Z"/><polygon class="cls-1" points="782.45 13.7 782.76 31.92 815.47 31.92 815.47 2.15 782.45 13.7"/><path class="cls-1" d="M814.65,45.9H741.56V13.36H709.63V45.9h-.16l-23.61,8.58V71.65h23.77v75q0,11.55,5.44,17.1,8.37,8.72,31.24,7.92l15.28-.57V147c-1.06.08-2.13.14-3.22.17s-2.14.06-3.12.06q-9.84,0-11.77-1.87T741.56,136V71.65h41.2V170h32.71V46.64Z"/><path class="cls-1" d="M1233.51,373.38h-28c-1,9-3,13-6.57,17.95-4.54,6.27-15.47,11.73-25.28,11.73-12.57,0-17.65-4.29-22-10l53.18-35.61c0,.17,0-.17,0,0l27.58-18.39q-3.67-17.18-13.68-27.29-15.82-16-45.15-16a72.66,72.66,0,0,0-24.9,4.06,51.14,51.14,0,0,0-19.2,12.19,55,55,0,0,0-12.45,20.48q-4.42,12.36-4.42,28.79,0,32.12,15.59,49t45.15,16.87a73.35,73.35,0,0,0,25-4.06,50.44,50.44,0,0,0,19.32-12.27c5.35-5.47,10.12-14.66,12.45-20.58S1233.51,373.38,1233.51,373.38Zm-90.7-12.05c0-15.64,2.64-25,7.93-32.42s12.84-11.1,22.65-11.1c12.72,0,17,1.53,23.4,10.09l-53.87,36.42C1142.84,362.7,1142.81,363.13,1142.81,361.33Z"/><path class="cls-1" d="M1082.31,120.38h-28c-1,9-3,13-6.58,18-4.54,6.27-15.47,11.73-25.28,11.73-12.57,0-17.65-4.29-21.94-10l53.17-35.61c0,.17,0-.17,0,0l27.59-18.39q-3.68-17.17-13.69-27.29-15.82-16-45.15-16a72.66,72.66,0,0,0-24.9,4.06,51.14,51.14,0,0,0-19.2,12.19,55,55,0,0,0-12.45,20.48q-4.43,12.36-4.42,28.79,0,32.12,15.59,49t45.15,16.87a73.45,73.45,0,0,0,25-4.06,50.48,50.48,0,0,0,19.31-12.27c5.35-5.47,10.12-14.66,12.45-20.58S1082.31,120.38,1082.31,120.38Zm-90.71-12c0-15.64,2.64-25,7.93-32.42s12.84-11.1,22.65-11.1c12.72,0,17,1.53,23.4,10.09l-53.87,36.42C991.64,109.7,991.6,110.13,991.6,108.33Z"/><path class="cls-1" d="M554,120.38H526c-1,9-3,13-6.58,18-4.53,6.27-15.47,11.73-25.28,11.73-12.56,0-17.65-4.29-21.94-10l53.17-35.61c0,.17,0-.17,0,0L553,86.08q-3.68-17.17-13.69-27.29-15.82-16-45.14-16a72.58,72.58,0,0,0-24.9,4.06A51.14,51.14,0,0,0,450,59.06a54.71,54.71,0,0,0-12.45,20.48q-4.43,12.36-4.43,28.79,0,32.12,15.6,49t45.15,16.87a73.39,73.39,0,0,0,25-4.06,50.48,50.48,0,0,0,19.31-12.27c5.36-5.47,10.13-14.66,12.45-20.58S554,120.38,554,120.38Zm-90.71-12c0-15.64,2.65-25,7.94-32.42s12.83-11.1,22.65-11.1c12.72,0,17,1.53,23.4,10.09L463.4,111.32C463.32,109.7,463.28,110.13,463.28,108.33Z"/></g></svg>